<svg xmlns="http://www.w3.org/2000/svg" viewBox="0 0 456.02 311.48"><defs><style>.cls-1{fill:none;stroke:#fff;stroke-linecap:round;stroke-linejoin:round;stroke-width:7px;}</style></defs><title>Logo-white_1</title><g id="Слой_2" data-name="Слой 2"><g id="Слой_1-2" data-name="Слой 1"><polyline class="cls-1" points="70 66.64 263.5 66.64 263.5 182.14 24.5 182.14"/><line class="cls-1" x1="13" y1="95.64" x2="149" y2="95.64"/><line class="cls-1" x1="29.5" y1="124.39" x2="114.5" y2="124.39"/><line class="cls-1" x1="3.5" y1="154.64" x2="72" y2="154.64"/><polyline class="cls-1" points="104 231.14 78.5 231.14 60 183.14"/><line class="cls-1" x1="254.5" y1="231.14" x2="167" y2="231.14"/><polyline class="cls-1" points="265.5 95.64 318.5 95.64 353 146.64 353 231.14 317.5 231.14"/><polyline class="cls-1" points="265.5 136.14 290.5 136.14 306 154.64 353 154.64"/><circle class="cls-1" cx="135.5" cy="231.14" r="31.5"/><circle class="cls-1" cx="286" cy="231.14" r="31.5"/><path class="cls-1" d="M250,28.93A135.55,135.55,0,0,0,222.1,43.16"/><path class="cls-1" d="M323.47,23a136.69,136.69,0,0,0-26.13-2.51q-5.91,0-11.69.5"/><path class="cls-1" d="M386.75,54A136.23,136.23,0,0,0,358,34.74"/><path class="cls-1" d="M426.52,113.86a135.45,135.45,0,0,0-15.73-32.39"/><path class="cls-1" d="M430.78,182.82a136.68,136.68,0,0,0,2.55-26.34q0-3.38-.16-6.73"/><path class="cls-1" d="M397.83,248.1A136.29,136.29,0,0,0,419,217.37"/><path class="cls-1" d="M337,286.6a135.34,135.34,0,0,0,32.83-15"/><path class="cls-1" d="M264.76,288.55c10.44,2.57,24.35,3.93,35.58,3.93"/><path class="cls-1" d="M202.84,254.29c8.36,8.08,15.76,14.1,26,19.84"/><polyline class="cls-1" points="250.01 28.93 245.86 12.39 281.26 3.5 285.65 20.97"/><polyline class="cls-1" points="323.46 22.99 329.22 5.04 363.98 16.19 358.03 34.74"/><polyline class="cls-1" points="386.75 54 401.66 40.82 425.83 68.17 410.79 81.46"/><polyline class="cls-1" points="426.52 113.85 446.18 110.39 452.52 146.33 433.17 149.74"/><polyline class="cls-1" points="430.78 182.82 448.74 189.37 436.22 223.66 418.96 217.36"/><polyline class="cls-1" points="397.83 248.1 409.56 262.93 380.94 285.58 369.83 271.55"/><polyline class="cls-1" points="337 286.59 339.19 303.23 303 307.98 300.96 293.43"/><polyline class="cls-1" points="264.76 288.54 258.63 303.7 224.79 290.02 230.82 275.12"/></g></g></svg>